ISO-10303-21;
HEADER;
/* Generated by software containing ST-Developer
 * from STEP Tools, Inc. (www.steptools.com) 
 */

FILE_DESCRIPTION(
/* description */ (''),
/* implementation_level */ '2;1');

FILE_NAME(
/* name */ 'Purge bucket v6.step',
/* time_stamp */ '2026-01-20T17:37:14+03:00',
/* author */ (''),
/* organization */ (''),
/* preprocessor_version */ 'ST-DEVELOPER v20.1',
/* originating_system */ 'Autodesk Translation Framework v14.10.0.0',
/* authorisation */ '');

FILE_SCHEMA (('AUTOMOTIVE_DESIGN { 1 0 10303 214 3 1 1 }'));
ENDSEC;

DATA;
#10=MECHANICAL_DESIGN_GEOMETRIC_PRESENTATION_REPRESENTATION('',(#13,#14),
#1289);
#11=SHAPE_REPRESENTATION_RELATIONSHIP('SRR','None',#1296,#12);
#12=ADVANCED_BREP_SHAPE_REPRESENTATION('',(#15,#16),#1288);
#13=STYLED_ITEM('',(#1305),#15);
#14=STYLED_ITEM('',(#1305),#16);
#15=MANIFOLD_SOLID_BREP('Body2',#799);
#16=MANIFOLD_SOLID_BREP('Body3',#800);
#17=CONICAL_SURFACE('',#828,9.5,0.0927563201881437);
#18=CYLINDRICAL_SURFACE('',#825,8.5);
#19=CYLINDRICAL_SURFACE('',#839,11.5);
#20=CYLINDRICAL_SURFACE('',#842,2.5);
#21=FACE_BOUND('',#79,.T.);
#22=FACE_BOUND('',#80,.T.);
#23=FACE_BOUND('',#90,.T.);
#24=FACE_BOUND('',#91,.T.);
#25=FACE_BOUND('',#113,.T.);
#26=CIRCLE('',#818,11.5);
#27=CIRCLE('',#819,8.5);
#28=CIRCLE('',#826,8.5);
#29=CIRCLE('',#829,10.5);
#30=CIRCLE('',#831,11.5);
#31=CIRCLE('',#832,2.5);
#32=CIRCLE('',#843,2.5);
#33=FACE_OUTER_BOUND('',#75,.T.);
#34=FACE_OUTER_BOUND('',#76,.T.);
#35=FACE_OUTER_BOUND('',#77,.T.);
#36=FACE_OUTER_BOUND('',#78,.T.);
#37=FACE_OUTER_BOUND('',#81,.T.);
#38=FACE_OUTER_BOUND('',#82,.T.);
#39=FACE_OUTER_BOUND('',#83,.T.);
#40=FACE_OUTER_BOUND('',#84,.T.);
#41=FACE_OUTER_BOUND('',#85,.T.);
#42=FACE_OUTER_BOUND('',#86,.T.);
#43=FACE_OUTER_BOUND('',#87,.T.);
#44=FACE_OUTER_BOUND('',#88,.T.);
#45=FACE_OUTER_BOUND('',#89,.T.);
#46=FACE_OUTER_BOUND('',#92,.T.);
#47=FACE_OUTER_BOUND('',#93,.T.);
#48=FACE_OUTER_BOUND('',#94,.T.);
#49=FACE_OUTER_BOUND('',#95,.T.);
#50=FACE_OUTER_BOUND('',#96,.T.);
#51=FACE_OUTER_BOUND('',#97,.T.);
#52=FACE_OUTER_BOUND('',#98,.T.);
#53=FACE_OUTER_BOUND('',#99,.T.);
#54=FACE_OUTER_BOUND('',#100,.T.);
#55=FACE_OUTER_BOUND('',#101,.T.);
#56=FACE_OUTER_BOUND('',#102,.T.);
#57=FACE_OUTER_BOUND('',#103,.T.);
#58=FACE_OUTER_BOUND('',#104,.T.);
#59=FACE_OUTER_BOUND('',#105,.T.);
#60=FACE_OUTER_BOUND('',#106,.T.);
#61=FACE_OUTER_BOUND('',#107,.T.);
#62=FACE_OUTER_BOUND('',#108,.T.);
#63=FACE_OUTER_BOUND('',#109,.T.);
#64=FACE_OUTER_BOUND('',#110,.T.);
#65=FACE_OUTER_BOUND('',#111,.T.);
#66=FACE_OUTER_BOUND('',#112,.T.);
#67=FACE_OUTER_BOUND('',#114,.T.);
#68=FACE_OUTER_BOUND('',#115,.T.);
#69=FACE_OUTER_BOUND('',#116,.T.);
#70=FACE_OUTER_BOUND('',#117,.T.);
#71=FACE_OUTER_BOUND('',#118,.T.);
#72=FACE_OUTER_BOUND('',#119,.T.);
#73=FACE_OUTER_BOUND('',#120,.T.);
#74=FACE_OUTER_BOUND('',#121,.T.);
#75=EDGE_LOOP('',(#503,#504,#505,#506));
#76=EDGE_LOOP('',(#507,#508,#509,#510,#511,#512));
#77=EDGE_LOOP('',(#513,#514,#515,#516,#517,#518,#519,#520,#521,#522,#523));
#78=EDGE_LOOP('',(#524,#525,#526,#527));
#79=EDGE_LOOP('',(#528,#529,#530,#531));
#80=EDGE_LOOP('',(#532));
#81=EDGE_LOOP('',(#533,#534,#535,#536));
#82=EDGE_LOOP('',(#537,#538,#539,#540));
#83=EDGE_LOOP('',(#541,#542,#543,#544));
#84=EDGE_LOOP('',(#545,#546,#547,#548));
#85=EDGE_LOOP('',(#549,#550,#551,#552));
#86=EDGE_LOOP('',(#553,#554,#555,#556));
#87=EDGE_LOOP('',(#557,#558,#559,#560));
#88=EDGE_LOOP('',(#561,#562,#563,#564));
#89=EDGE_LOOP('',(#565,#566,#567,#568,#569,#570,#571,#572,#573,#574,#575,
#576,#577,#578));
#90=EDGE_LOOP('',(#579));
#91=EDGE_LOOP('',(#580));
#92=EDGE_LOOP('',(#581,#582,#583,#584));
#93=EDGE_LOOP('',(#585,#586,#587,#588));
#94=EDGE_LOOP('',(#589,#590,#591,#592));
#95=EDGE_LOOP('',(#593,#594,#595,#596,#597,#598,#599,#600,#601,#602));
#96=EDGE_LOOP('',(#603,#604,#605,#606));
#97=EDGE_LOOP('',(#607,#608,#609,#610,#611,#612));
#98=EDGE_LOOP('',(#613,#614,#615,#616,#617));
#99=EDGE_LOOP('',(#618,#619,#620,#621));
#100=EDGE_LOOP('',(#622,#623,#624,#625));
#101=EDGE_LOOP('',(#626,#627,#628,#629));
#102=EDGE_LOOP('',(#630,#631,#632,#633));
#103=EDGE_LOOP('',(#634,#635,#636,#637));
#104=EDGE_LOOP('',(#638,#639,#640,#641));
#105=EDGE_LOOP('',(#642,#643,#644,#645));
#106=EDGE_LOOP('',(#646,#647,#648,#649));
#107=EDGE_LOOP('',(#650,#651,#652,#653));
#108=EDGE_LOOP('',(#654,#655,#656,#657));
#109=EDGE_LOOP('',(#658,#659,#660,#661));
#110=EDGE_LOOP('',(#662,#663,#664,#665));
#111=EDGE_LOOP('',(#666,#667,#668,#669));
#112=EDGE_LOOP('',(#670,#671,#672,#673,#674,#675,#676,#677,#678,#679,#680,
#681));
#113=EDGE_LOOP('',(#682));
#114=EDGE_LOOP('',(#683,#684,#685,#686));
#115=EDGE_LOOP('',(#687,#688,#689,#690));
#116=EDGE_LOOP('',(#691,#692,#693,#694));
#117=EDGE_LOOP('',(#695,#696,#697,#698));
#118=EDGE_LOOP('',(#699,#700,#701,#702));
#119=EDGE_LOOP('',(#703,#704,#705,#706));
#120=EDGE_LOOP('',(#707,#708,#709,#710,#711,#712));
#121=EDGE_LOOP('',(#713,#714,#715,#716,#717,#718));
#122=LINE('',#1068,#223);
#123=LINE('',#1070,#224);
#124=LINE('',#1072,#225);
#125=LINE('',#1073,#226);
#126=LINE('',#1076,#227);
#127=LINE('',#1078,#228);
#128=LINE('',#1080,#229);
#129=LINE('',#1082,#230);
#130=LINE('',#1083,#231);
#131=LINE('',#1087,#232);
#132=LINE('',#1089,#233);
#133=LINE('',#1091,#234);
#134=LINE('',#1092,#235);
#135=LINE('',#1094,#236);
#136=LINE('',#1096,#237);
#137=LINE('',#1098,#238);
#138=LINE('',#1100,#239);
#139=LINE('',#1101,#240);
#140=LINE('',#1104,#241);
#141=LINE('',#1107,#242);
#142=LINE('',#1110,#243);
#143=LINE('',#1112,#244);
#144=LINE('',#1114,#245);
#145=LINE('',#1115,#246);
#146=LINE('',#1121,#247);
#147=LINE('',#1122,#248);
#148=LINE('',#1123,#249);
#149=LINE('',#1126,#250);
#150=LINE('',#1127,#251);
#151=LINE('',#1130,#252);
#152=LINE('',#1131,#253);
#153=LINE('',#1134,#254);
#154=LINE('',#1135,#255);
#155=LINE('',#1138,#256);
#156=LINE('',#1139,#257);
#157=LINE('',#1142,#258);
#158=LINE('',#1146,#259);
#159=LINE('',#1148,#260);
#160=LINE('',#1149,#261);
#161=LINE('',#1152,#262);
#162=LINE('',#1156,#263);
#163=LINE('',#1160,#264);
#164=LINE('',#1162,#265);
#165=LINE('',#1164,#266);
#166=LINE('',#1166,#267);
#167=LINE('',#1168,#268);
#168=LINE('',#1170,#269);
#169=LINE('',#1172,#270);
#170=LINE('',#1174,#271);
#171=LINE('',#1176,#272);
#172=LINE('',#1177,#273);
#173=LINE('',#1183,#274);
#174=LINE('',#1185,#275);
#175=LINE('',#1187,#276);
#176=LINE('',#1188,#277);
#177=LINE('',#1190,#278);
#178=LINE('',#1191,#279);
#179=LINE('',#1193,#280);
#180=LINE('',#1195,#281);
#181=LINE('',#1196,#282);
#182=LINE('',#1199,#283);
#183=LINE('',#1201,#284);
#184=LINE('',#1203,#285);
#185=LINE('',#1208,#286);
#186=LINE('',#1211,#287);
#187=LINE('',#1212,#288);
#188=LINE('',#1215,#289);
#189=LINE('',#1216,#290);
#190=LINE('',#1219,#291);
#191=LINE('',#1220,#292);
#192=LINE('',#1223,#293);
#193=LINE('',#1224,#294);
#194=LINE('',#1227,#295);
#195=LINE('',#1228,#296);
#196=LINE('',#1231,#297);
#197=LINE('',#1232,#298);
#198=LINE('',#1235,#299);
#199=LINE('',#1236,#300);
#200=LINE('',#1239,#301);
#201=LINE('',#1240,#302);
#202=LINE('',#1243,#303);
#203=LINE('',#1244,#304);
#204=LINE('',#1246,#305);
#205=LINE('',#1251,#306);
#206=LINE('',#1253,#307);
#207=LINE('',#1255,#308);
#208=LINE('',#1256,#309);
#209=LINE('',#1259,#310);
#210=LINE('',#1261,#311);
#211=LINE('',#1262,#312);
#212=LINE('',#1265,#313);
#213=LINE('',#1267,#314);
#214=LINE('',#1268,#315);
#215=LINE('',#1271,#316);
#216=LINE('',#1273,#317);
#217=LINE('',#1274,#318);
#218=LINE('',#1277,#319);
#219=LINE('',#1279,#320);
#220=LINE('',#1280,#321);
#221=LINE('',#1282,#322);
#222=LINE('',#1283,#323);
#223=VECTOR('',#867,10.);
#224=VECTOR('',#868,10.);
#225=VECTOR('',#869,10.);
#226=VECTOR('',#870,10.);
#227=VECTOR('',#873,10.);
#228=VECTOR('',#874,10.);
#229=VECTOR('',#875,10.);
#230=VECTOR('',#876,10.);
#231=VECTOR('',#877,10.);
#232=VECTOR('',#880,10.);
#233=VECTOR('',#881,10.);
#234=VECTOR('',#882,10.);
#235=VECTOR('',#883,10.);
#236=VECTOR('',#884,10.);
#237=VECTOR('',#885,10.);
#238=VECTOR('',#886,10.);
#239=VECTOR('',#887,10.);
#240=VECTOR('',#888,10.);
#241=VECTOR('',#891,10.);
#242=VECTOR('',#894,10.);
#243=VECTOR('',#895,10.);
#244=VECTOR('',#896,10.);
#245=VECTOR('',#897,10.);
#246=VECTOR('',#898,10.);
#247=VECTOR('',#903,10.);
#248=VECTOR('',#904,10.);
#249=VECTOR('',#905,10.);
#250=VECTOR('',#908,10.);
#251=VECTOR('',#909,10.);
#252=VECTOR('',#912,10.);
#253=VECTOR('',#913,10.);
#254=VECTOR('',#916,10.);
#255=VECTOR('',#917,10.);
#256=VECTOR('',#920,10.);
#257=VECTOR('',#921,10.);
#258=VECTOR('',#924,8.5);
#259=VECTOR('',#929,10.);
#260=VECTOR('',#930,10.);
#261=VECTOR('',#931,10.);
#262=VECTOR('',#934,9.5);
#263=VECTOR('',#939,10.);
#264=VECTOR('',#942,10.);
#265=VECTOR('',#943,10.);
#266=VECTOR('',#944,10.);
#267=VECTOR('',#945,10.);
#268=VECTOR('',#946,10.);
#269=VECTOR('',#947,10.);
#270=VECTOR('',#948,10.);
#271=VECTOR('',#949,10.);
#272=VECTOR('',#950,10.);
#273=VECTOR('',#951,10.);
#274=VECTOR('',#956,10.);
#275=VECTOR('',#957,10.);
#276=VECTOR('',#958,10.);
#277=VECTOR('',#959,10.);
#278=VECTOR('',#962,10.);
#279=VECTOR('',#963,10.);
#280=VECTOR('',#966,10.);
#281=VECTOR('',#969,10.);
#282=VECTOR('',#970,10.);
#283=VECTOR('',#975,10.);
#284=VECTOR('',#978,10.);
#285=VECTOR('',#981,10.);
#286=VECTOR('',#988,2.5);
#287=VECTOR('',#991,10.);
#288=VECTOR('',#992,10.);
#289=VECTOR('',#995,10.);
#290=VECTOR('',#996,10.);
#291=VECTOR('',#999,10.);
#292=VECTOR('',#1000,10.);
#293=VECTOR('',#1003,10.);
#294=VECTOR('',#1004,10.);
#295=VECTOR('',#1007,10.);
#296=VECTOR('',#1008,10.);
#297=VECTOR('',#1011,10.);
#298=VECTOR('',#1012,10.);
#299=VECTOR('',#1015,10.);
#300=VECTOR('',#1016,10.);
#301=VECTOR('',#1019,10.);
#302=VECTOR('',#1020,10.);
#303=VECTOR('',#1023,10.);
#304=VECTOR('',#1024,10.);
#305=VECTOR('',#1027,10.);
#306=VECTOR('',#1032,10.);
#307=VECTOR('',#1033,10.);
#308=VECTOR('',#1034,10.);
#309=VECTOR('',#1035,10.);
#310=VECTOR('',#1038,10.);
#311=VECTOR('',#1039,10.);
#312=VECTOR('',#1040,10.);
#313=VECTOR('',#1043,10.);
#314=VECTOR('',#1044,10.);
#315=VECTOR('',#1045,10.);
#316=VECTOR('',#1048,10.);
#317=VECTOR('',#1049,10.);
#318=VECTOR('',#1050,10.);
#319=VECTOR('',#1053,10.);
#320=VECTOR('',#1054,10.);
#321=VECTOR('',#1055,10.);
#322=VECTOR('',#1058,10.);
#323=VECTOR('',#1059,10.);
#324=VERTEX_POINT('',#1066);
#325=VERTEX_POINT('',#1067);
#326=VERTEX_POINT('',#1069);
#327=VERTEX_POINT('',#1071);
#328=VERTEX_POINT('',#1075);
#329=VERTEX_POINT('',#1077);
#330=VERTEX_POINT('',#1079);
#331=VERTEX_POINT('',#1081);
#332=VERTEX_POINT('',#1085);
#333=VERTEX_POINT('',#1086);
#334=VERTEX_POINT('',#1088);
#335=VERTEX_POINT('',#1090);
#336=VERTEX_POINT('',#1093);
#337=VERTEX_POINT('',#1095);
#338=VERTEX_POINT('',#1097);
#339=VERTEX_POINT('',#1099);
#340=VERTEX_POINT('',#1103);
#341=VERTEX_POINT('',#1105);
#342=VERTEX_POINT('',#1108);
#343=VERTEX_POINT('',#1109);
#344=VERTEX_POINT('',#1111);
#345=VERTEX_POINT('',#1113);
#346=VERTEX_POINT('',#1116);
#347=VERTEX_POINT('',#1119);
#348=VERTEX_POINT('',#1120);
#349=VERTEX_POINT('',#1125);
#350=VERTEX_POINT('',#1129);
#351=VERTEX_POINT('',#1133);
#352=VERTEX_POINT('',#1137);
#353=VERTEX_POINT('',#1141);
#354=VERTEX_POINT('',#1145);
#355=VERTEX_POINT('',#1147);
#356=VERTEX_POINT('',#1151);
#357=VERTEX_POINT('',#1155);
#358=VERTEX_POINT('',#1157);
#359=VERTEX_POINT('',#1159);
#360=VERTEX_POINT('',#1161);
#361=VERTEX_POINT('',#1163);
#362=VERTEX_POINT('',#1165);
#363=VERTEX_POINT('',#1167);
#364=VERTEX_POINT('',#1169);
#365=VERTEX_POINT('',#1171);
#366=VERTEX_POINT('',#1173);
#367=VERTEX_POINT('',#1175);
#368=VERTEX_POINT('',#1178);
#369=VERTEX_POINT('',#1181);
#370=VERTEX_POINT('',#1182);
#371=VERTEX_POINT('',#1184);
#372=VERTEX_POINT('',#1186);
#373=VERTEX_POINT('',#1206);
#374=VERTEX_POINT('',#1210);
#375=VERTEX_POINT('',#1214);
#376=VERTEX_POINT('',#1218);
#377=VERTEX_POINT('',#1222);
#378=VERTEX_POINT('',#1226);
#379=VERTEX_POINT('',#1230);
#380=VERTEX_POINT('',#1234);
#381=VERTEX_POINT('',#1238);
#382=VERTEX_POINT('',#1242);
#383=VERTEX_POINT('',#1249);
#384=VERTEX_POINT('',#1250);
#385=VERTEX_POINT('',#1252);
#386=VERTEX_POINT('',#1254);
#387=VERTEX_POINT('',#1258);
#388=VERTEX_POINT('',#1260);
#389=VERTEX_POINT('',#1264);
#390=VERTEX_POINT('',#1266);
#391=VERTEX_POINT('',#1270);
#392=VERTEX_POINT('',#1272);
#393=VERTEX_POINT('',#1276);
#394=VERTEX_POINT('',#1278);
#395=EDGE_CURVE('',#324,#325,#122,.T.);
#396=EDGE_CURVE('',#326,#324,#123,.T.);
#397=EDGE_CURVE('',#327,#326,#124,.T.);
#398=EDGE_CURVE('',#325,#327,#125,.T.);
#399=EDGE_CURVE('',#328,#324,#126,.T.);
#400=EDGE_CURVE('',#329,#325,#127,.T.);
#401=EDGE_CURVE('',#330,#329,#128,.T.);
#402=EDGE_CURVE('',#330,#331,#129,.T.);
#403=EDGE_CURVE('',#328,#331,#130,.T.);
#404=EDGE_CURVE('',#332,#333,#131,.T.);
#405=EDGE_CURVE('',#334,#333,#132,.T.);
#406=EDGE_CURVE('',#335,#334,#133,.T.);
#407=EDGE_CURVE('',#335,#329,#134,.T.);
#408=EDGE_CURVE('',#336,#327,#135,.T.);
#409=EDGE_CURVE('',#337,#336,#136,.T.);
#410=EDGE_CURVE('',#337,#338,#137,.T.);
#411=EDGE_CURVE('',#339,#338,#138,.T.);
#412=EDGE_CURVE('',#332,#339,#139,.T.);
#413=EDGE_CURVE('',#340,#328,#140,.T.);
#414=EDGE_CURVE('',#331,#341,#26,.T.);
#415=EDGE_CURVE('',#341,#340,#141,.T.);
#416=EDGE_CURVE('',#342,#343,#142,.T.);
#417=EDGE_CURVE('',#343,#344,#143,.T.);
#418=EDGE_CURVE('',#344,#345,#144,.T.);
#419=EDGE_CURVE('',#345,#342,#145,.T.);
#420=EDGE_CURVE('',#346,#346,#27,.T.);
#421=EDGE_CURVE('',#347,#348,#146,.T.);
#422=EDGE_CURVE('',#332,#347,#147,.T.);
#423=EDGE_CURVE('',#339,#348,#148,.T.);
#424=EDGE_CURVE('',#349,#347,#149,.T.);
#425=EDGE_CURVE('',#333,#349,#150,.T.);
#426=EDGE_CURVE('',#348,#350,#151,.T.);
#427=EDGE_CURVE('',#350,#338,#152,.T.);
#428=EDGE_CURVE('',#337,#351,#153,.T.);
#429=EDGE_CURVE('',#351,#350,#154,.T.);
#430=EDGE_CURVE('',#352,#336,#155,.T.);
#431=EDGE_CURVE('',#351,#352,#156,.T.);
#432=EDGE_CURVE('',#346,#353,#157,.T.);
#433=EDGE_CURVE('',#353,#353,#28,.F.);
#434=EDGE_CURVE('',#354,#329,#158,.T.);
#435=EDGE_CURVE('',#335,#355,#159,.T.);
#436=EDGE_CURVE('',#355,#354,#160,.T.);
#437=EDGE_CURVE('',#353,#356,#161,.T.);
#438=EDGE_CURVE('',#356,#356,#29,.T.);
#439=EDGE_CURVE('',#357,#334,#162,.T.);
#440=EDGE_CURVE('',#358,#357,#30,.T.);
#441=EDGE_CURVE('',#358,#359,#163,.T.);
#442=EDGE_CURVE('',#359,#360,#164,.T.);
#443=EDGE_CURVE('',#360,#361,#165,.T.);
#444=EDGE_CURVE('',#361,#362,#166,.T.);
#445=EDGE_CURVE('',#363,#362,#167,.F.);
#446=EDGE_CURVE('',#364,#363,#168,.F.);
#447=EDGE_CURVE('',#365,#364,#169,.F.);
#448=EDGE_CURVE('',#366,#365,#170,.T.);
#449=EDGE_CURVE('',#367,#366,#171,.T.);
#450=EDGE_CURVE('',#355,#367,#172,.T.);
#451=EDGE_CURVE('',#368,#368,#31,.T.);
#452=EDGE_CURVE('',#369,#370,#173,.T.);
#453=EDGE_CURVE('',#371,#369,#174,.T.);
#454=EDGE_CURVE('',#372,#371,#175,.T.);
#455=EDGE_CURVE('',#370,#372,#176,.T.);
#456=EDGE_CURVE('',#369,#344,#177,.T.);
#457=EDGE_CURVE('',#371,#343,#178,.T.);
#458=EDGE_CURVE('',#370,#345,#179,.T.);
#459=EDGE_CURVE('',#352,#326,#180,.T.);
#460=EDGE_CURVE('',#349,#340,#181,.T.);
#461=EDGE_CURVE('',#357,#341,#182,.T.);
#462=EDGE_CURVE('',#358,#330,#183,.T.);
#463=EDGE_CURVE('',#372,#342,#184,.T.);
#464=EDGE_CURVE('',#373,#373,#32,.T.);
#465=EDGE_CURVE('',#373,#368,#185,.T.);
#466=EDGE_CURVE('',#374,#330,#186,.T.);
#467=EDGE_CURVE('',#359,#374,#187,.T.);
#468=EDGE_CURVE('',#375,#374,#188,.T.);
#469=EDGE_CURVE('',#360,#375,#189,.T.);
#470=EDGE_CURVE('',#376,#375,#190,.F.);
#471=EDGE_CURVE('',#361,#376,#191,.T.);
#472=EDGE_CURVE('',#377,#376,#192,.F.);
#473=EDGE_CURVE('',#362,#377,#193,.T.);
#474=EDGE_CURVE('',#378,#377,#194,.F.);
#475=EDGE_CURVE('',#363,#378,#195,.T.);
#476=EDGE_CURVE('',#379,#378,#196,.F.);
#477=EDGE_CURVE('',#364,#379,#197,.T.);
#478=EDGE_CURVE('',#380,#379,#198,.F.);
#479=EDGE_CURVE('',#365,#380,#199,.F.);
#480=EDGE_CURVE('',#381,#380,#200,.T.);
#481=EDGE_CURVE('',#366,#381,#201,.T.);
#482=EDGE_CURVE('',#382,#381,#202,.T.);
#483=EDGE_CURVE('',#367,#382,#203,.T.);
#484=EDGE_CURVE('',#354,#382,#204,.T.);
#485=EDGE_CURVE('',#383,#384,#205,.F.);
#486=EDGE_CURVE('',#385,#384,#206,.T.);
#487=EDGE_CURVE('',#385,#386,#207,.T.);
#488=EDGE_CURVE('',#386,#383,#208,.T.);
#489=EDGE_CURVE('',#384,#387,#209,.F.);
#490=EDGE_CURVE('',#388,#387,#210,.T.);
#491=EDGE_CURVE('',#388,#385,#211,.T.);
#492=EDGE_CURVE('',#387,#389,#212,.F.);
#493=EDGE_CURVE('',#390,#389,#213,.T.);
#494=EDGE_CURVE('',#390,#388,#214,.T.);
#495=EDGE_CURVE('',#389,#391,#215,.F.);
#496=EDGE_CURVE('',#392,#391,#216,.T.);
#497=EDGE_CURVE('',#390,#392,#217,.T.);
#498=EDGE_CURVE('',#391,#393,#218,.F.);
#499=EDGE_CURVE('',#394,#393,#219,.T.);
#500=EDGE_CURVE('',#392,#394,#220,.T.);
#501=EDGE_CURVE('',#393,#383,#221,.F.);
#502=EDGE_CURVE('',#394,#386,#222,.T.);
#503=ORIENTED_EDGE('',*,*,#395,.F.);
#504=ORIENTED_EDGE('',*,*,#396,.F.);
#505=ORIENTED_EDGE('',*,*,#397,.F.);
#506=ORIENTED_EDGE('',*,*,#398,.F.);
#507=ORIENTED_EDGE('',*,*,#399,.T.);
#508=ORIENTED_EDGE('',*,*,#395,.T.);
#509=ORIENTED_EDGE('',*,*,#400,.F.);
#510=ORIENTED_EDGE('',*,*,#401,.F.);
#511=ORIENTED_EDGE('',*,*,#402,.T.);
#512=ORIENTED_EDGE('',*,*,#403,.F.);
#513=ORIENTED_EDGE('',*,*,#404,.T.);
#514=ORIENTED_EDGE('',*,*,#405,.F.);
#515=ORIENTED_EDGE('',*,*,#406,.F.);
#516=ORIENTED_EDGE('',*,*,#407,.T.);
#517=ORIENTED_EDGE('',*,*,#400,.T.);
#518=ORIENTED_EDGE('',*,*,#398,.T.);
#519=ORIENTED_EDGE('',*,*,#408,.F.);
#520=ORIENTED_EDGE('',*,*,#409,.F.);
#521=ORIENTED_EDGE('',*,*,#410,.T.);
#522=ORIENTED_EDGE('',*,*,#411,.F.);
#523=ORIENTED_EDGE('',*,*,#412,.F.);
#524=ORIENTED_EDGE('',*,*,#413,.T.);
#525=ORIENTED_EDGE('',*,*,#403,.T.);
#526=ORIENTED_EDGE('',*,*,#414,.T.);
#527=ORIENTED_EDGE('',*,*,#415,.T.);
#528=ORIENTED_EDGE('',*,*,#416,.T.);
#529=ORIENTED_EDGE('',*,*,#417,.T.);
#530=ORIENTED_EDGE('',*,*,#418,.T.);
#531=ORIENTED_EDGE('',*,*,#419,.T.);
#532=ORIENTED_EDGE('',*,*,#420,.T.);
#533=ORIENTED_EDGE('',*,*,#421,.F.);
#534=ORIENTED_EDGE('',*,*,#422,.F.);
#535=ORIENTED_EDGE('',*,*,#412,.T.);
#536=ORIENTED_EDGE('',*,*,#423,.T.);
#537=ORIENTED_EDGE('',*,*,#424,.F.);
#538=ORIENTED_EDGE('',*,*,#425,.F.);
#539=ORIENTED_EDGE('',*,*,#404,.F.);
#540=ORIENTED_EDGE('',*,*,#422,.T.);
#541=ORIENTED_EDGE('',*,*,#426,.F.);
#542=ORIENTED_EDGE('',*,*,#423,.F.);
#543=ORIENTED_EDGE('',*,*,#411,.T.);
#544=ORIENTED_EDGE('',*,*,#427,.F.);
#545=ORIENTED_EDGE('',*,*,#427,.T.);
#546=ORIENTED_EDGE('',*,*,#410,.F.);
#547=ORIENTED_EDGE('',*,*,#428,.T.);
#548=ORIENTED_EDGE('',*,*,#429,.T.);
#549=ORIENTED_EDGE('',*,*,#409,.T.);
#550=ORIENTED_EDGE('',*,*,#430,.F.);
#551=ORIENTED_EDGE('',*,*,#431,.F.);
#552=ORIENTED_EDGE('',*,*,#428,.F.);
#553=ORIENTED_EDGE('',*,*,#420,.F.);
#554=ORIENTED_EDGE('',*,*,#432,.T.);
#555=ORIENTED_EDGE('',*,*,#433,.F.);
#556=ORIENTED_EDGE('',*,*,#432,.F.);
#557=ORIENTED_EDGE('',*,*,#434,.T.);
#558=ORIENTED_EDGE('',*,*,#407,.F.);
#559=ORIENTED_EDGE('',*,*,#435,.T.);
#560=ORIENTED_EDGE('',*,*,#436,.T.);
#561=ORIENTED_EDGE('',*,*,#433,.T.);
#562=ORIENTED_EDGE('',*,*,#437,.T.);
#563=ORIENTED_EDGE('',*,*,#438,.T.);
#564=ORIENTED_EDGE('',*,*,#437,.F.);
#565=ORIENTED_EDGE('',*,*,#406,.T.);
#566=ORIENTED_EDGE('',*,*,#439,.F.);
#567=ORIENTED_EDGE('',*,*,#440,.F.);
#568=ORIENTED_EDGE('',*,*,#441,.T.);
#569=ORIENTED_EDGE('',*,*,#442,.T.);
#570=ORIENTED_EDGE('',*,*,#443,.T.);
#571=ORIENTED_EDGE('',*,*,#444,.T.);
#572=ORIENTED_EDGE('',*,*,#445,.F.);
#573=ORIENTED_EDGE('',*,*,#446,.F.);
#574=ORIENTED_EDGE('',*,*,#447,.F.);
#575=ORIENTED_EDGE('',*,*,#448,.F.);
#576=ORIENTED_EDGE('',*,*,#449,.F.);
#577=ORIENTED_EDGE('',*,*,#450,.F.);
#578=ORIENTED_EDGE('',*,*,#435,.F.);
#579=ORIENTED_EDGE('',*,*,#451,.F.);
#580=ORIENTED_EDGE('',*,*,#438,.F.);
#581=ORIENTED_EDGE('',*,*,#452,.F.);
#582=ORIENTED_EDGE('',*,*,#453,.F.);
#583=ORIENTED_EDGE('',*,*,#454,.F.);
#584=ORIENTED_EDGE('',*,*,#455,.F.);
#585=ORIENTED_EDGE('',*,*,#453,.T.);
#586=ORIENTED_EDGE('',*,*,#456,.T.);
#587=ORIENTED_EDGE('',*,*,#417,.F.);
#588=ORIENTED_EDGE('',*,*,#457,.F.);
#589=ORIENTED_EDGE('',*,*,#452,.T.);
#590=ORIENTED_EDGE('',*,*,#458,.T.);
#591=ORIENTED_EDGE('',*,*,#418,.F.);
#592=ORIENTED_EDGE('',*,*,#456,.F.);
#593=ORIENTED_EDGE('',*,*,#426,.T.);
#594=ORIENTED_EDGE('',*,*,#429,.F.);
#595=ORIENTED_EDGE('',*,*,#431,.T.);
#596=ORIENTED_EDGE('',*,*,#459,.T.);
#597=ORIENTED_EDGE('',*,*,#396,.T.);
#598=ORIENTED_EDGE('',*,*,#399,.F.);
#599=ORIENTED_EDGE('',*,*,#413,.F.);
#600=ORIENTED_EDGE('',*,*,#460,.F.);
#601=ORIENTED_EDGE('',*,*,#424,.T.);
#602=ORIENTED_EDGE('',*,*,#421,.T.);
#603=ORIENTED_EDGE('',*,*,#397,.T.);
#604=ORIENTED_EDGE('',*,*,#459,.F.);
#605=ORIENTED_EDGE('',*,*,#430,.T.);
#606=ORIENTED_EDGE('',*,*,#408,.T.);
#607=ORIENTED_EDGE('',*,*,#460,.T.);
#608=ORIENTED_EDGE('',*,*,#415,.F.);
#609=ORIENTED_EDGE('',*,*,#461,.F.);
#610=ORIENTED_EDGE('',*,*,#439,.T.);
#611=ORIENTED_EDGE('',*,*,#405,.T.);
#612=ORIENTED_EDGE('',*,*,#425,.T.);
#613=ORIENTED_EDGE('',*,*,#402,.F.);
#614=ORIENTED_EDGE('',*,*,#462,.F.);
#615=ORIENTED_EDGE('',*,*,#440,.T.);
#616=ORIENTED_EDGE('',*,*,#461,.T.);
#617=ORIENTED_EDGE('',*,*,#414,.F.);
#618=ORIENTED_EDGE('',*,*,#454,.T.);
#619=ORIENTED_EDGE('',*,*,#457,.T.);
#620=ORIENTED_EDGE('',*,*,#416,.F.);
#621=ORIENTED_EDGE('',*,*,#463,.F.);
#622=ORIENTED_EDGE('',*,*,#455,.T.);
#623=ORIENTED_EDGE('',*,*,#463,.T.);
#624=ORIENTED_EDGE('',*,*,#419,.F.);
#625=ORIENTED_EDGE('',*,*,#458,.F.);
#626=ORIENTED_EDGE('',*,*,#464,.F.);
#627=ORIENTED_EDGE('',*,*,#465,.T.);
#628=ORIENTED_EDGE('',*,*,#451,.T.);
#629=ORIENTED_EDGE('',*,*,#465,.F.);
#630=ORIENTED_EDGE('',*,*,#441,.F.);
#631=ORIENTED_EDGE('',*,*,#462,.T.);
#632=ORIENTED_EDGE('',*,*,#466,.F.);
#633=ORIENTED_EDGE('',*,*,#467,.F.);
#634=ORIENTED_EDGE('',*,*,#442,.F.);
#635=ORIENTED_EDGE('',*,*,#467,.T.);
#636=ORIENTED_EDGE('',*,*,#468,.F.);
#637=ORIENTED_EDGE('',*,*,#469,.F.);
#638=ORIENTED_EDGE('',*,*,#443,.F.);
#639=ORIENTED_EDGE('',*,*,#469,.T.);
#640=ORIENTED_EDGE('',*,*,#470,.F.);
#641=ORIENTED_EDGE('',*,*,#471,.F.);
#642=ORIENTED_EDGE('',*,*,#444,.F.);
#643=ORIENTED_EDGE('',*,*,#471,.T.);
#644=ORIENTED_EDGE('',*,*,#472,.F.);
#645=ORIENTED_EDGE('',*,*,#473,.F.);
#646=ORIENTED_EDGE('',*,*,#445,.T.);
#647=ORIENTED_EDGE('',*,*,#473,.T.);
#648=ORIENTED_EDGE('',*,*,#474,.F.);
#649=ORIENTED_EDGE('',*,*,#475,.F.);
#650=ORIENTED_EDGE('',*,*,#446,.T.);
#651=ORIENTED_EDGE('',*,*,#475,.T.);
#652=ORIENTED_EDGE('',*,*,#476,.F.);
#653=ORIENTED_EDGE('',*,*,#477,.F.);
#654=ORIENTED_EDGE('',*,*,#447,.T.);
#655=ORIENTED_EDGE('',*,*,#477,.T.);
#656=ORIENTED_EDGE('',*,*,#478,.F.);
#657=ORIENTED_EDGE('',*,*,#479,.F.);
#658=ORIENTED_EDGE('',*,*,#448,.T.);
#659=ORIENTED_EDGE('',*,*,#479,.T.);
#660=ORIENTED_EDGE('',*,*,#480,.F.);
#661=ORIENTED_EDGE('',*,*,#481,.F.);
#662=ORIENTED_EDGE('',*,*,#449,.T.);
#663=ORIENTED_EDGE('',*,*,#481,.T.);
#664=ORIENTED_EDGE('',*,*,#482,.F.);
#665=ORIENTED_EDGE('',*,*,#483,.F.);
#666=ORIENTED_EDGE('',*,*,#436,.F.);
#667=ORIENTED_EDGE('',*,*,#450,.T.);
#668=ORIENTED_EDGE('',*,*,#483,.T.);
#669=ORIENTED_EDGE('',*,*,#484,.F.);
#670=ORIENTED_EDGE('',*,*,#401,.T.);
#671=ORIENTED_EDGE('',*,*,#434,.F.);
#672=ORIENTED_EDGE('',*,*,#484,.T.);
#673=ORIENTED_EDGE('',*,*,#482,.T.);
#674=ORIENTED_EDGE('',*,*,#480,.T.);
#675=ORIENTED_EDGE('',*,*,#478,.T.);
#676=ORIENTED_EDGE('',*,*,#476,.T.);
#677=ORIENTED_EDGE('',*,*,#474,.T.);
#678=ORIENTED_EDGE('',*,*,#472,.T.);
#679=ORIENTED_EDGE('',*,*,#470,.T.);
#680=ORIENTED_EDGE('',*,*,#468,.T.);
#681=ORIENTED_EDGE('',*,*,#466,.T.);
#682=ORIENTED_EDGE('',*,*,#464,.T.);
#683=ORIENTED_EDGE('',*,*,#485,.T.);
#684=ORIENTED_EDGE('',*,*,#486,.F.);
#685=ORIENTED_EDGE('',*,*,#487,.T.);
#686=ORIENTED_EDGE('',*,*,#488,.T.);
#687=ORIENTED_EDGE('',*,*,#489,.T.);
#688=ORIENTED_EDGE('',*,*,#490,.F.);
#689=ORIENTED_EDGE('',*,*,#491,.T.);
#690=ORIENTED_EDGE('',*,*,#486,.T.);
#691=ORIENTED_EDGE('',*,*,#492,.T.);
#692=ORIENTED_EDGE('',*,*,#493,.F.);
#693=ORIENTED_EDGE('',*,*,#494,.T.);
#694=ORIENTED_EDGE('',*,*,#490,.T.);
#695=ORIENTED_EDGE('',*,*,#495,.T.);
#696=ORIENTED_EDGE('',*,*,#496,.F.);
#697=ORIENTED_EDGE('',*,*,#497,.F.);
#698=ORIENTED_EDGE('',*,*,#493,.T.);
#699=ORIENTED_EDGE('',*,*,#498,.T.);
#700=ORIENTED_EDGE('',*,*,#499,.F.);
#701=ORIENTED_EDGE('',*,*,#500,.F.);
#702=ORIENTED_EDGE('',*,*,#496,.T.);
#703=ORIENTED_EDGE('',*,*,#501,.T.);
#704=ORIENTED_EDGE('',*,*,#488,.F.);
#705=ORIENTED_EDGE('',*,*,#502,.F.);
#706=ORIENTED_EDGE('',*,*,#499,.T.);
#707=ORIENTED_EDGE('',*,*,#494,.F.);
#708=ORIENTED_EDGE('',*,*,#497,.T.);
#709=ORIENTED_EDGE('',*,*,#500,.T.);
#710=ORIENTED_EDGE('',*,*,#502,.T.);
#711=ORIENTED_EDGE('',*,*,#487,.F.);
#712=ORIENTED_EDGE('',*,*,#491,.F.);
#713=ORIENTED_EDGE('',*,*,#495,.F.);
#714=ORIENTED_EDGE('',*,*,#492,.F.);
#715=ORIENTED_EDGE('',*,*,#489,.F.);
#716=ORIENTED_EDGE('',*,*,#485,.F.);
#717=ORIENTED_EDGE('',*,*,#501,.F.);
#718=ORIENTED_EDGE('',*,*,#498,.F.);
#719=PLANE('',#814);
#720=PLANE('',#815);
#721=PLANE('',#816);
#722=PLANE('',#817);
#723=PLANE('',#820);
#724=PLANE('',#821);
#725=PLANE('',#822);
#726=PLANE('',#823);
#727=PLANE('',#824);
#728=PLANE('',#827);
#729=PLANE('',#830);
#730=PLANE('',#833);
#731=PLANE('',#834);
#732=PLANE('',#835);
#733=PLANE('',#836);
#734=PLANE('',#837);
#735=PLANE('',#838);
#736=PLANE('',#840);
#737=PLANE('',#841);
#738=PLANE('',#844);
#739=PLANE('',#845);
#740=PLANE('',#846);
#741=PLANE('',#847);
#742=PLANE('',#848);
#743=PLANE('',#849);
#744=PLANE('',#850);
#745=PLANE('',#851);
#746=PLANE('',#852);
#747=PLANE('',#853);
#748=PLANE('',#854);
#749=PLANE('',#855);
#750=PLANE('',#856);
#751=PLANE('',#857);
#752=PLANE('',#858);
#753=PLANE('',#859);
#754=PLANE('',#860);
#755=PLANE('',#861);
#756=PLANE('',#862);
#757=ADVANCED_FACE('',(#33),#719,.T.);
#758=ADVANCED_FACE('',(#34),#720,.T.);
#759=ADVANCED_FACE('',(#35),#721,.T.);
#760=ADVANCED_FACE('',(#36,#21,#22),#722,.T.);
#761=ADVANCED_FACE('',(#37),#723,.T.);
#762=ADVANCED_FACE('',(#38),#724,.T.);
#763=ADVANCED_FACE('',(#39),#725,.T.);
#764=ADVANCED_FACE('',(#40),#726,.F.);
#765=ADVANCED_FACE('',(#41),#727,.T.);
#766=ADVANCED_FACE('',(#42),#18,.F.);
#767=ADVANCED_FACE('',(#43),#728,.T.);
#768=ADVANCED_FACE('',(#44),#17,.F.);
#769=ADVANCED_FACE('',(#45,#23,#24),#729,.F.);
#770=ADVANCED_FACE('',(#46),#730,.T.);
#771=ADVANCED_FACE('',(#47),#731,.T.);
#772=ADVANCED_FACE('',(#48),#732,.T.);
#773=ADVANCED_FACE('',(#49),#733,.T.);
#774=ADVANCED_FACE('',(#50),#734,.T.);
#775=ADVANCED_FACE('',(#51),#735,.T.);
#776=ADVANCED_FACE('',(#52),#19,.T.);
#777=ADVANCED_FACE('',(#53),#736,.T.);
#778=ADVANCED_FACE('',(#54),#737,.T.);
#779=ADVANCED_FACE('',(#55),#20,.F.);
#780=ADVANCED_FACE('',(#56),#738,.T.);
#781=ADVANCED_FACE('',(#57),#739,.T.);
#782=ADVANCED_FACE('',(#58),#740,.T.);
#783=ADVANCED_FACE('',(#59),#741,.T.);
#784=ADVANCED_FACE('',(#60),#742,.T.);
#785=ADVANCED_FACE('',(#61),#743,.T.);
#786=ADVANCED_FACE('',(#62),#744,.T.);
#787=ADVANCED_FACE('',(#63),#745,.T.);
#788=ADVANCED_FACE('',(#64),#746,.T.);
#789=ADVANCED_FACE('',(#65),#747,.T.);
#790=ADVANCED_FACE('',(#66,#25),#748,.T.);
#791=ADVANCED_FACE('',(#67),#749,.T.);
#792=ADVANCED_FACE('',(#68),#750,.T.);
#793=ADVANCED_FACE('',(#69),#751,.T.);
#794=ADVANCED_FACE('',(#70),#752,.T.);
#795=ADVANCED_FACE('',(#71),#753,.T.);
#796=ADVANCED_FACE('',(#72),#754,.T.);
#797=ADVANCED_FACE('',(#73),#755,.F.);
#798=ADVANCED_FACE('',(#74),#756,.T.);
#799=CLOSED_SHELL('',(#757,#758,#759,#760,#761,#762,#763,#764,#765,#766,
#767,#768,#769,#770,#771,#772,#773,#774,#775,#776,#777,#778,#779,#780,#781,
#782,#783,#784,#785,#786,#787,#788,#789,#790));
#800=CLOSED_SHELL('',(#791,#792,#793,#794,#795,#796,#797,#798));
#801=DERIVED_UNIT_ELEMENT(#803,1.);
#802=DERIVED_UNIT_ELEMENT(#1291,-3.);
#803=(
MASS_UNIT()
NAMED_UNIT(*)
SI_UNIT(.KILO.,.GRAM.)
);
#804=DERIVED_UNIT((#801,#802));
#805=MEASURE_REPRESENTATION_ITEM('density measure',
POSITIVE_RATIO_MEASURE(7850.),#804);
#806=PROPERTY_DEFINITION_REPRESENTATION(#811,#808);
#807=PROPERTY_DEFINITION_REPRESENTATION(#812,#809);
#808=REPRESENTATION('material name',(#810),#1288);
#809=REPRESENTATION('density',(#805),#1288);
#810=DESCRIPTIVE_REPRESENTATION_ITEM('Steel','Steel');
#811=PROPERTY_DEFINITION('material property','material name',#1298);
#812=PROPERTY_DEFINITION('material property','density of part',#1298);
#813=AXIS2_PLACEMENT_3D('',#1064,#863,#864);
#814=AXIS2_PLACEMENT_3D('',#1065,#865,#866);
#815=AXIS2_PLACEMENT_3D('',#1074,#871,#872);
#816=AXIS2_PLACEMENT_3D('',#1084,#878,#879);
#817=AXIS2_PLACEMENT_3D('',#1102,#889,#890);
#818=AXIS2_PLACEMENT_3D('',#1106,#892,#893);
#819=AXIS2_PLACEMENT_3D('',#1117,#899,#900);
#820=AXIS2_PLACEMENT_3D('',#1118,#901,#902);
#821=AXIS2_PLACEMENT_3D('',#1124,#906,#907);
#822=AXIS2_PLACEMENT_3D('',#1128,#910,#911);
#823=AXIS2_PLACEMENT_3D('',#1132,#914,#915);
#824=AXIS2_PLACEMENT_3D('',#1136,#918,#919);
#825=AXIS2_PLACEMENT_3D('',#1140,#922,#923);
#826=AXIS2_PLACEMENT_3D('',#1143,#925,#926);
#827=AXIS2_PLACEMENT_3D('',#1144,#927,#928);
#828=AXIS2_PLACEMENT_3D('',#1150,#932,#933);
#829=AXIS2_PLACEMENT_3D('',#1153,#935,#936);
#830=AXIS2_PLACEMENT_3D('',#1154,#937,#938);
#831=AXIS2_PLACEMENT_3D('',#1158,#940,#941);
#832=AXIS2_PLACEMENT_3D('',#1179,#952,#953);
#833=AXIS2_PLACEMENT_3D('',#1180,#954,#955);
#834=AXIS2_PLACEMENT_3D('',#1189,#960,#961);
#835=AXIS2_PLACEMENT_3D('',#1192,#964,#965);
#836=AXIS2_PLACEMENT_3D('',#1194,#967,#968);
#837=AXIS2_PLACEMENT_3D('',#1197,#971,#972);
#838=AXIS2_PLACEMENT_3D('',#1198,#973,#974);
#839=AXIS2_PLACEMENT_3D('',#1200,#976,#977);
#840=AXIS2_PLACEMENT_3D('',#1202,#979,#980);
#841=AXIS2_PLACEMENT_3D('',#1204,#982,#983);
#842=AXIS2_PLACEMENT_3D('',#1205,#984,#985);
#843=AXIS2_PLACEMENT_3D('',#1207,#986,#987);
#844=AXIS2_PLACEMENT_3D('',#1209,#989,#990);
#845=AXIS2_PLACEMENT_3D('',#1213,#993,#994);
#846=AXIS2_PLACEMENT_3D('',#1217,#997,#998);
#847=AXIS2_PLACEMENT_3D('',#1221,#1001,#1002);
#848=AXIS2_PLACEMENT_3D('',#1225,#1005,#1006);
#849=AXIS2_PLACEMENT_3D('',#1229,#1009,#1010);
#850=AXIS2_PLACEMENT_3D('',#1233,#1013,#1014);
#851=AXIS2_PLACEMENT_3D('',#1237,#1017,#1018);
#852=AXIS2_PLACEMENT_3D('',#1241,#1021,#1022);
#853=AXIS2_PLACEMENT_3D('',#1245,#1025,#1026);
#854=AXIS2_PLACEMENT_3D('',#1247,#1028,#1029);
#855=AXIS2_PLACEMENT_3D('',#1248,#1030,#1031);
#856=AXIS2_PLACEMENT_3D('',#1257,#1036,#1037);
#857=AXIS2_PLACEMENT_3D('',#1263,#1041,#1042);
#858=AXIS2_PLACEMENT_3D('',#1269,#1046,#1047);
#859=AXIS2_PLACEMENT_3D('',#1275,#1051,#1052);
#860=AXIS2_PLACEMENT_3D('',#1281,#1056,#1057);
#861=AXIS2_PLACEMENT_3D('',#1284,#1060,#1061);
#862=AXIS2_PLACEMENT_3D('',#1285,#1062,#1063);
#863=DIRECTION('axis',(0.,0.,1.));
#864=DIRECTION('refdir',(1.,0.,0.));
#865=DIRECTION('center_axis',(0.,0.,1.));
#866=DIRECTION('ref_axis',(1.,0.,0.));
#867=DIRECTION('',(1.,0.,0.));
#868=DIRECTION('',(0.,1.,0.));
#869=DIRECTION('',(-1.,0.,0.));
#870=DIRECTION('',(0.,-1.,0.));
#871=DIRECTION('center_axis',(0.,1.,0.));
#872=DIRECTION('ref_axis',(-1.,0.,0.));
#873=DIRECTION('',(0.,0.,-1.));
#874=DIRECTION('',(0.,0.,1.));
#875=DIRECTION('',(1.,0.,0.));
#876=DIRECTION('',(0.,0.,1.));
#877=DIRECTION('',(-1.,0.,0.));
#878=DIRECTION('center_axis',(1.,0.,0.));
#879=DIRECTION('ref_axis',(0.,1.,0.));
#880=DIRECTION('',(0.,-1.,0.));
#881=DIRECTION('',(0.,0.,1.));
#882=DIRECTION('',(0.,-1.,0.));
#883=DIRECTION('',(0.,0.,1.));
#884=DIRECTION('',(0.,0.,1.));
#885=DIRECTION('',(0.,1.,0.));
#886=DIRECTION('',(0.,0.,1.));
#887=DIRECTION('',(0.,-0.707106794357438,-0.707106768015657));
#888=DIRECTION('',(0.,0.,-1.));
#889=DIRECTION('center_axis',(0.,0.,1.));
#890=DIRECTION('ref_axis',(1.,0.,0.));
#891=DIRECTION('',(0.,1.,0.));
#892=DIRECTION('center_axis',(0.,0.,1.));
#893=DIRECTION('ref_axis',(1.,0.,0.));
#894=DIRECTION('',(1.,0.,0.));
#895=DIRECTION('',(1.,0.,0.));
#896=DIRECTION('',(0.,-1.,0.));
#897=DIRECTION('',(-1.,0.,0.));
#898=DIRECTION('',(0.,1.,0.));
#899=DIRECTION('center_axis',(0.,0.,-1.));
#900=DIRECTION('ref_axis',(1.,0.,0.));
#901=DIRECTION('center_axis',(0.,1.,0.));
#902=DIRECTION('ref_axis',(0.,0.,-1.));
#903=DIRECTION('',(0.,0.,-1.));
#904=DIRECTION('',(-1.,0.,0.));
#905=DIRECTION('',(-1.,0.,0.));
#906=DIRECTION('center_axis',(0.,0.,1.));
#907=DIRECTION('ref_axis',(0.,1.,0.));
#908=DIRECTION('',(0.,1.,0.));
#909=DIRECTION('',(-1.,0.,0.));
#910=DIRECTION('center_axis',(0.,0.707106768015657,-0.707106794357438));
#911=DIRECTION('ref_axis',(0.,-0.707106794357438,-0.707106768015657));
#912=DIRECTION('',(0.,-0.707106794357438,-0.707106768015657));
#913=DIRECTION('',(1.,0.,0.));
#914=DIRECTION('center_axis',(0.,-1.,0.));
#915=DIRECTION('ref_axis',(0.,0.,1.));
#916=DIRECTION('',(-1.,0.,0.));
#917=DIRECTION('',(0.,0.,1.));
#918=DIRECTION('center_axis',(0.,0.,1.));
#919=DIRECTION('ref_axis',(1.,0.,0.));
#920=DIRECTION('',(1.,0.,0.));
#921=DIRECTION('',(0.,1.,0.));
#922=DIRECTION('center_axis',(0.,0.,1.));
#923=DIRECTION('ref_axis',(1.,0.,0.));
#924=DIRECTION('',(0.,0.,-1.));
#925=DIRECTION('center_axis',(0.,0.,-1.));
#926=DIRECTION('ref_axis',(1.,0.,0.));
#927=DIRECTION('center_axis',(0.819231900666873,0.573462372723566,0.));
#928=DIRECTION('ref_axis',(0.,0.,-1.));
#929=DIRECTION('',(0.573462372723566,-0.819231900666873,0.));
#930=DIRECTION('',(-0.573462372723566,0.819231900666873,0.));
#931=DIRECTION('',(0.,0.,1.));
#932=DIRECTION('center_axis',(0.,0.,-1.));
#933=DIRECTION('ref_axis',(1.,0.,0.));
#934=DIRECTION('',(-0.0926233689294978,-1.13430912285754E-17,-0.995701215992102));
#935=DIRECTION('center_axis',(0.,0.,-1.));
#936=DIRECTION('ref_axis',(1.,0.,0.));
#937=DIRECTION('center_axis',(0.,0.,1.));
#938=DIRECTION('ref_axis',(1.,0.,0.));
#939=DIRECTION('',(1.,0.,0.));
#940=DIRECTION('center_axis',(0.,0.,1.));
#941=DIRECTION('ref_axis',(1.,0.,0.));
#942=DIRECTION('',(-1.51214901940001E-16,1.,0.));
#943=DIRECTION('',(0.631772678634104,0.775153715421328,0.));
#944=DIRECTION('',(0.,-1.,0.));
#945=DIRECTION('',(1.,0.,0.));
#946=DIRECTION('',(0.,1.,0.));
#947=DIRECTION('',(-1.,0.,0.));
#948=DIRECTION('',(-4.91249125940335E-17,1.,0.));
#949=DIRECTION('',(-1.,0.,0.));
#950=DIRECTION('',(-0.631772702658515,0.775153695840738,0.));
#951=DIRECTION('',(-5.15809421170062E-8,0.999999999999999,0.));
#952=DIRECTION('center_axis',(0.,0.,-1.));
#953=DIRECTION('ref_axis',(1.,0.,0.));
#954=DIRECTION('center_axis',(0.,0.,1.));
#955=DIRECTION('ref_axis',(1.,0.,0.));
#956=DIRECTION('',(-1.,0.,0.));
#957=DIRECTION('',(0.,-1.,0.));
#958=DIRECTION('',(1.,0.,0.));
#959=DIRECTION('',(0.,1.,0.));
#960=DIRECTION('center_axis',(-1.,0.,0.));
#961=DIRECTION('ref_axis',(0.,-1.,0.));
#962=DIRECTION('',(0.,0.,1.));
#963=DIRECTION('',(0.,0.,1.));
#964=DIRECTION('center_axis',(0.,1.,0.));
#965=DIRECTION('ref_axis',(-1.,0.,0.));
#966=DIRECTION('',(0.,0.,1.));
#967=DIRECTION('center_axis',(1.,0.,0.));
#968=DIRECTION('ref_axis',(0.,1.,0.));
#969=DIRECTION('',(0.,0.,1.));
#970=DIRECTION('',(0.,0.,1.));
#971=DIRECTION('center_axis',(0.,-1.,0.));
#972=DIRECTION('ref_axis',(1.,0.,0.));
#973=DIRECTION('center_axis',(0.,-1.,0.));
#974=DIRECTION('ref_axis',(1.,0.,0.));
#975=DIRECTION('',(0.,0.,1.));
#976=DIRECTION('center_axis',(0.,0.,1.));
#977=DIRECTION('ref_axis',(-1.,1.22464679914735E-16,0.));
#978=DIRECTION('',(0.,0.,1.));
#979=DIRECTION('center_axis',(0.,-1.,0.));
#980=DIRECTION('ref_axis',(1.,0.,0.));
#981=DIRECTION('',(0.,0.,1.));
#982=DIRECTION('center_axis',(1.,0.,0.));
#983=DIRECTION('ref_axis',(0.,1.,0.));
#984=DIRECTION('center_axis',(0.,0.,1.));
#985=DIRECTION('ref_axis',(1.,0.,0.));
#986=DIRECTION('center_axis',(0.,0.,-1.));
#987=DIRECTION('ref_axis',(1.,0.,0.));
#988=DIRECTION('',(0.,0.,-1.));
#989=DIRECTION('center_axis',(-1.,-1.51214901940001E-16,0.));
#990=DIRECTION('ref_axis',(1.51214901940001E-16,-1.,0.));
#991=DIRECTION('',(1.51214901940001E-16,-1.,0.));
#992=DIRECTION('',(0.,0.,1.));
#993=DIRECTION('center_axis',(-0.775153715421328,0.631772678634104,0.));
#994=DIRECTION('ref_axis',(-0.631772678634104,-0.775153715421328,0.));
#995=DIRECTION('',(-0.631772678634104,-0.775153715421328,0.));
#996=DIRECTION('',(0.,0.,1.));
#997=DIRECTION('center_axis',(1.,0.,0.));
#998=DIRECTION('ref_axis',(0.,1.,0.));
#999=DIRECTION('',(0.,-1.,0.));
#1000=DIRECTION('',(0.,0.,1.));
#1001=DIRECTION('center_axis',(0.,1.,0.));
#1002=DIRECTION('ref_axis',(-1.,0.,0.));
#1003=DIRECTION('',(1.,0.,0.));
#1004=DIRECTION('',(0.,0.,1.));
#1005=DIRECTION('center_axis',(-1.,0.,0.));
#1006=DIRECTION('ref_axis',(0.,-1.,0.));
#1007=DIRECTION('',(0.,1.,0.));
#1008=DIRECTION('',(0.,0.,1.));
#1009=DIRECTION('center_axis',(0.,-1.,0.));
#1010=DIRECTION('ref_axis',(1.,0.,0.));
#1011=DIRECTION('',(-1.,0.,0.));
#1012=DIRECTION('',(0.,0.,1.));
#1013=DIRECTION('center_axis',(-1.,-4.91249125940335E-17,0.));
#1014=DIRECTION('ref_axis',(4.91249125940335E-17,-1.,0.));
#1015=DIRECTION('',(-4.91249125940335E-17,1.,0.));
#1016=DIRECTION('',(0.,0.,-1.));
#1017=DIRECTION('center_axis',(0.,1.,0.));
#1018=DIRECTION('ref_axis',(-1.,0.,0.));
#1019=DIRECTION('',(-1.,0.,0.));
#1020=DIRECTION('',(0.,0.,1.));
#1021=DIRECTION('center_axis',(0.775153695840738,0.631772702658515,0.));
#1022=DIRECTION('ref_axis',(-0.631772702658515,0.775153695840738,0.));
#1023=DIRECTION('',(-0.631772702658515,0.775153695840738,0.));
#1024=DIRECTION('',(0.,0.,1.));
#1025=DIRECTION('center_axis',(0.999999999999999,5.15809421170062E-8,0.));
#1026=DIRECTION('ref_axis',(-5.15809421170062E-8,0.999999999999999,0.));
#1027=DIRECTION('',(-5.15809421170062E-8,0.999999999999999,0.));
#1028=DIRECTION('center_axis',(0.,0.,1.));
#1029=DIRECTION('ref_axis',(1.,0.,0.));
#1030=DIRECTION('center_axis',(0.,-1.,0.));
#1031=DIRECTION('ref_axis',(1.,0.,0.));
#1032=DIRECTION('',(1.,0.,0.));
#1033=DIRECTION('',(0.,0.,1.));
#1034=DIRECTION('',(1.,0.,0.));
#1035=DIRECTION('',(0.,0.,1.));
#1036=DIRECTION('center_axis',(-1.,0.,0.));
#1037=DIRECTION('ref_axis',(0.,-1.,0.));
#1038=DIRECTION('',(0.,-1.,0.));
#1039=DIRECTION('',(0.,0.,1.));
#1040=DIRECTION('',(0.,-1.,0.));
#1041=DIRECTION('center_axis',(0.,1.,0.));
#1042=DIRECTION('ref_axis',(-1.,0.,0.));
#1043=DIRECTION('',(-1.,0.,0.));
#1044=DIRECTION('',(0.,0.,1.));
#1045=DIRECTION('',(-1.,0.,0.));
#1046=DIRECTION('center_axis',(1.,4.91249125940335E-17,0.));
#1047=DIRECTION('ref_axis',(-4.91249125940335E-17,1.,0.));
#1048=DIRECTION('',(-4.91249125940335E-17,1.,0.));
#1049=DIRECTION('',(0.,0.,1.));
#1050=DIRECTION('',(4.91249125940335E-17,-1.,0.));
#1051=DIRECTION('center_axis',(0.,1.,0.));
#1052=DIRECTION('ref_axis',(-1.,0.,0.));
#1053=DIRECTION('',(-1.,0.,0.));
#1054=DIRECTION('',(0.,0.,1.));
#1055=DIRECTION('',(1.,0.,0.));
#1056=DIRECTION('center_axis',(1.,0.,0.));
#1057=DIRECTION('ref_axis',(0.,1.,0.));
#1058=DIRECTION('',(0.,1.,0.));
#1059=DIRECTION('',(0.,-1.,0.));
#1060=DIRECTION('center_axis',(0.,0.,1.));
#1061=DIRECTION('ref_axis',(1.,0.,0.));
#1062=DIRECTION('center_axis',(0.,0.,1.));
#1063=DIRECTION('ref_axis',(1.,0.,0.));
#1064=CARTESIAN_POINT('',(0.,0.,0.));
#1065=CARTESIAN_POINT('Origin',(13.9999999254942,-45.,15.8552223860597));
#1066=CARTESIAN_POINT('',(-5.00000007450581,-33.5,15.8552223860597));
#1067=CARTESIAN_POINT('',(32.9999999254942,-33.5,15.8552223860597));
#1068=CARTESIAN_POINT('',(23.4999999254942,-33.5,15.8552223860597));
#1069=CARTESIAN_POINT('',(-5.00000007450581,-40.0000006705523,15.8552223860597));
#1070=CARTESIAN_POINT('',(-5.00000007450581,-42.5000003352761,15.8552223860597));
#1071=CARTESIAN_POINT('',(32.9999999254942,-40.0000006705523,15.8552223860597));
#1072=CARTESIAN_POINT('',(4.49999992549419,-40.0000006705523,15.8552223860597));
#1073=CARTESIAN_POINT('',(32.9999999254942,-50.75,15.8552223860597));
#1074=CARTESIAN_POINT('Origin',(32.9999999254942,-33.5,0.));
#1075=CARTESIAN_POINT('',(-5.00000007450581,-33.5,24.5));
#1076=CARTESIAN_POINT('',(-5.00000007450581,-33.5,12.25));
#1077=CARTESIAN_POINT('',(33.0000017279616,-33.5,4.));
#1078=CARTESIAN_POINT('',(32.9999999254942,-33.5,0.));
#1079=CARTESIAN_POINT('',(-26.,-33.5,4.));
#1080=CARTESIAN_POINT('',(-26.,-33.5,4.));
#1081=CARTESIAN_POINT('',(-26.,-33.5,24.5));
#1082=CARTESIAN_POINT('',(-26.,-33.5,21.5));
#1083=CARTESIAN_POINT('',(15.3749999441206,-33.5,24.5));
#1084=CARTESIAN_POINT('Origin',(32.9999999254942,-56.5,0.));
#1085=CARTESIAN_POINT('',(32.9999999254942,-50.0000006705523,15.8552223860597));
#1086=CARTESIAN_POINT('',(32.9999999254942,-56.5,15.8552223860597));
#1087=CARTESIAN_POINT('',(32.9999999254942,-50.75,15.8552223860597));
#1088=CARTESIAN_POINT('',(32.9999999254942,-56.5,0.));
#1089=CARTESIAN_POINT('',(32.9999999254942,-56.5,0.));
#1090=CARTESIAN_POINT('',(32.9999999254942,-33.5,0.));
#1091=CARTESIAN_POINT('',(32.9999999254942,-33.5,0.));
#1092=CARTESIAN_POINT('',(32.9999999254942,-33.5,0.));
#1093=CARTESIAN_POINT('',(32.9999999254942,-40.0000006705523,4.));
#1094=CARTESIAN_POINT('',(32.9999999254942,-40.0000006705523,0.));
#1095=CARTESIAN_POINT('',(32.9999999254942,-52.0000007450581,4.));
#1096=CARTESIAN_POINT('',(32.9999999254942,-50.0000006705523,4.));
#1097=CARTESIAN_POINT('',(32.9999999254942,-52.0000007450581,12.));
#1098=CARTESIAN_POINT('',(32.9999999254942,-52.0000007450581,0.));
#1099=CARTESIAN_POINT('',(32.9999999254942,-50.0000006705523,14.));
#1100=CARTESIAN_POINT('',(32.9999999254942,-50.0000006705523,14.));
#1101=CARTESIAN_POINT('',(32.9999999254942,-50.0000006705523,20.0000002682209));
#1102=CARTESIAN_POINT('Origin',(-2.2500000372529,-45.,24.5));
#1103=CARTESIAN_POINT('',(-5.00000007450581,-56.5,24.5));
#1104=CARTESIAN_POINT('',(-5.00000007450581,-50.75,24.5));
#1105=CARTESIAN_POINT('',(-26.,-56.5,24.5));
#1106=CARTESIAN_POINT('Origin',(-26.,-45.,24.5));
#1107=CARTESIAN_POINT('',(-14.1250000186265,-56.5,24.5));
#1108=CARTESIAN_POINT('',(-13.5000001639128,-36.0000006705523,24.5));
#1109=CARTESIAN_POINT('',(-8.50000016391277,-36.0000006705523,24.5));
#1110=CARTESIAN_POINT('',(-7.87500010058284,-36.0000006705523,24.5));
#1111=CARTESIAN_POINT('',(-8.50000016391277,-54.0000006705523,24.5));
#1112=CARTESIAN_POINT('',(-8.50000016391277,-40.5000003352761,24.5));
#1113=CARTESIAN_POINT('',(-13.5000001639128,-54.0000006705523,24.5));
#1114=CARTESIAN_POINT('',(-5.37500010058284,-54.0000006705523,24.5));
#1115=CARTESIAN_POINT('',(-13.5000001639128,-49.5000003352761,24.5));
#1116=CARTESIAN_POINT('',(-34.5,-45.,24.5));
#1117=CARTESIAN_POINT('Origin',(-26.,-45.,24.5));
#1118=CARTESIAN_POINT('Origin',(32.9999999254942,-50.0000006705523,15.8552223860597));
#1119=CARTESIAN_POINT('',(-5.00000007450581,-50.0000006705523,15.8552223860597));
#1120=CARTESIAN_POINT('',(-5.00000007450581,-50.0000006705523,14.));
#1121=CARTESIAN_POINT('',(-5.00000007450581,-50.0000006705523,7.92761119302987));
#1122=CARTESIAN_POINT('',(32.9999999254942,-50.0000006705523,15.8552223860597));
#1123=CARTESIAN_POINT('',(32.9999999254942,-50.0000006705523,14.));
#1124=CARTESIAN_POINT('Origin',(32.9999999254942,-52.0000007450581,15.8552223860597));
#1125=CARTESIAN_POINT('',(-5.00000007450581,-56.5,15.8552223860597));
#1126=CARTESIAN_POINT('',(-5.00000007450581,-51.0000007078052,15.8552223860597));
#1127=CARTESIAN_POINT('',(-6.0000000372529,-56.5,15.8552223860597));
#1128=CARTESIAN_POINT('Origin',(32.9999999254942,-50.0000006705523,14.));
#1129=CARTESIAN_POINT('',(-5.00000007450581,-52.0000007450581,12.));
#1130=CARTESIAN_POINT('',(-5.00000007450581,-53.5000006705523,10.5000001303852));
#1131=CARTESIAN_POINT('',(32.9999999254942,-52.0000007450581,12.));
#1132=CARTESIAN_POINT('Origin',(32.9999999254942,-52.0000007450581,0.));
#1133=CARTESIAN_POINT('',(-5.00000007450581,-52.0000007450581,4.));
#1134=CARTESIAN_POINT('',(23.4999999254942,-52.0000007450581,4.));
#1135=CARTESIAN_POINT('',(-5.00000007450581,-52.0000007450581,4.50000006705523));
#1136=CARTESIAN_POINT('Origin',(13.9999999254942,-45.0000006705523,4.));
#1137=CARTESIAN_POINT('',(-5.00000007450581,-40.0000006705523,4.));
#1138=CARTESIAN_POINT('',(4.49999992549419,-40.0000006705523,4.));
#1139=CARTESIAN_POINT('',(-5.00000007450581,-47.5000006705523,4.));
#1140=CARTESIAN_POINT('Origin',(-26.,-45.,21.5));
#1141=CARTESIAN_POINT('',(-34.5,-45.,21.5));
#1142=CARTESIAN_POINT('',(-34.5,-45.,21.5));
#1143=CARTESIAN_POINT('Origin',(-26.,-45.,21.5));
#1144=CARTESIAN_POINT('Origin',(29.5000014700569,-28.5,0.));
#1145=CARTESIAN_POINT('',(26.0000012121521,-23.5,4.));
#1146=CARTESIAN_POINT('',(20.3859068233634,-15.4798657498534,4.));
#1147=CARTESIAN_POINT('',(26.0000012121521,-23.5,0.));
#1148=CARTESIAN_POINT('',(20.3859068233634,-15.4798657498534,0.));
#1149=CARTESIAN_POINT('',(26.0000012121521,-23.5,0.));
#1150=CARTESIAN_POINT('Origin',(-26.,-45.,10.75));
#1151=CARTESIAN_POINT('',(-36.5,-45.,0.));
#1152=CARTESIAN_POINT('',(-35.5,-45.,10.75));
#1153=CARTESIAN_POINT('Origin',(-26.,-45.,0.));
#1154=CARTESIAN_POINT('Origin',(8.63980780252405E-7,-10.35,0.));
#1155=CARTESIAN_POINT('',(-26.,-56.5,0.));
#1156=CARTESIAN_POINT('',(-26.,-56.5,0.));
#1157=CARTESIAN_POINT('',(-26.,-33.5,0.));
#1158=CARTESIAN_POINT('Origin',(-26.,-45.,0.));
#1159=CARTESIAN_POINT('',(-26.,-4.13191496653759,0.));
#1160=CARTESIAN_POINT('',(-26.,-33.5,0.));
#1161=CARTESIAN_POINT('',(-12.3,12.6773049640106,0.));
#1162=CARTESIAN_POINT('',(-26.,-4.13191496653759,0.));
#1163=CARTESIAN_POINT('',(-12.3,-12.3,0.));
#1164=CARTESIAN_POINT('',(-12.3,-11.275,0.));
#1165=CARTESIAN_POINT('',(12.9,-12.3,0.));
#1166=CARTESIAN_POINT('',(6.40000043199039,-12.3,0.));
#1167=CARTESIAN_POINT('',(12.9,-9.7,0.));
#1168=CARTESIAN_POINT('',(12.9,-10.075,0.));
#1169=CARTESIAN_POINT('',(-9.7,-9.7,0.));
#1170=CARTESIAN_POINT('',(-4.89999956800961,-9.7,0.));
#1171=CARTESIAN_POINT('',(-9.7,12.8,0.));
#1172=CARTESIAN_POINT('',(-9.7,1.225,0.));
#1173=CARTESIAN_POINT('',(12.1999993397639,12.8,0.));
#1174=CARTESIAN_POINT('',(12.8,12.8,0.));
#1175=CARTESIAN_POINT('',(26.0000002131281,-4.1319149665376,0.));
#1176=CARTESIAN_POINT('',(26.0000002131281,-4.1319149665376,0.));
#1177=CARTESIAN_POINT('',(26.0000017279616,-33.5,0.));
#1178=CARTESIAN_POINT('',(-2.5,-3.06161699786838E-16,0.));
#1179=CARTESIAN_POINT('Origin',(0.,0.,0.));
#1180=CARTESIAN_POINT('Origin',(-11.0000001639128,-45.0000006705523,11.5));
#1181=CARTESIAN_POINT('',(-8.50000016391277,-54.0000006705523,11.5));
#1182=CARTESIAN_POINT('',(-13.5000001639128,-54.0000006705523,11.5));
#1183=CARTESIAN_POINT('',(-9.75000016391277,-54.0000006705523,11.5));
#1184=CARTESIAN_POINT('',(-8.50000016391277,-36.0000006705523,11.5));
#1185=CARTESIAN_POINT('',(-8.50000016391277,-40.5000006705523,11.5));
#1186=CARTESIAN_POINT('',(-13.5000001639128,-36.0000006705523,11.5));
#1187=CARTESIAN_POINT('',(-12.2500001639128,-36.0000006705523,11.5));
#1188=CARTESIAN_POINT('',(-13.5000001639128,-49.5000006705523,11.5));
#1189=CARTESIAN_POINT('Origin',(-8.50000016391277,-36.0000006705523,0.));
#1190=CARTESIAN_POINT('',(-8.50000016391277,-54.0000006705523,0.));
#1191=CARTESIAN_POINT('',(-8.50000016391277,-36.0000006705523,21.5));
#1192=CARTESIAN_POINT('Origin',(-8.50000016391277,-54.0000006705523,0.));
#1193=CARTESIAN_POINT('',(-13.5000001639128,-54.0000006705523,0.));
#1194=CARTESIAN_POINT('Origin',(-5.00000007450581,-50.0000006705523,0.));
#1195=CARTESIAN_POINT('',(-5.00000007450581,-40.0000006705523,0.));
#1196=CARTESIAN_POINT('',(-5.00000007450581,-56.5,12.25));
#1197=CARTESIAN_POINT('Origin',(-5.00000007450581,-40.0000006705523,0.));
#1198=CARTESIAN_POINT('Origin',(-26.,-56.5,0.));
#1199=CARTESIAN_POINT('',(-26.,-56.5,0.));
#1200=CARTESIAN_POINT('Origin',(-26.,-45.,0.));
#1201=CARTESIAN_POINT('',(-26.,-33.5,0.));
#1202=CARTESIAN_POINT('Origin',(-13.5000001639128,-36.0000006705523,0.));
#1203=CARTESIAN_POINT('',(-13.5000001639128,-36.0000006705523,0.));
#1204=CARTESIAN_POINT('Origin',(-13.5000001639128,-54.0000006705523,0.));
#1205=CARTESIAN_POINT('Origin',(0.,0.,0.));
#1206=CARTESIAN_POINT('',(-2.5,-3.06161699786838E-16,4.));
#1207=CARTESIAN_POINT('Origin',(0.,0.,4.));
#1208=CARTESIAN_POINT('',(-2.5,-3.06161699786838E-16,0.));
#1209=CARTESIAN_POINT('Origin',(-26.,-4.13191496653759,0.));
#1210=CARTESIAN_POINT('',(-26.,-4.13191496653759,4.));
#1211=CARTESIAN_POINT('',(-26.,-33.5,4.));
#1212=CARTESIAN_POINT('',(-26.,-4.13191496653759,0.));
#1213=CARTESIAN_POINT('Origin',(-12.2,12.8,0.));
#1214=CARTESIAN_POINT('',(-12.3,12.6773049640106,4.));
#1215=CARTESIAN_POINT('',(-26.,-4.13191496653759,4.));
#1216=CARTESIAN_POINT('',(-12.3,12.6773049640106,0.));
#1217=CARTESIAN_POINT('Origin',(-12.3,-12.2,0.));
#1218=CARTESIAN_POINT('',(-12.3,-12.3,4.));
#1219=CARTESIAN_POINT('',(-12.3,-11.275,4.));
#1220=CARTESIAN_POINT('',(-12.3,-12.3,0.));
#1221=CARTESIAN_POINT('Origin',(12.8,-12.3,0.));
#1222=CARTESIAN_POINT('',(12.9,-12.3,4.));
#1223=CARTESIAN_POINT('',(6.40000043199039,-12.3,4.));
#1224=CARTESIAN_POINT('',(12.9,-12.3,0.));
#1225=CARTESIAN_POINT('Origin',(12.9,-9.8,0.));
#1226=CARTESIAN_POINT('',(12.9,-9.7,4.));
#1227=CARTESIAN_POINT('',(12.9,-10.075,4.));
#1228=CARTESIAN_POINT('',(12.9,-9.7,0.));
#1229=CARTESIAN_POINT('Origin',(-9.8,-9.7,0.));
#1230=CARTESIAN_POINT('',(-9.7,-9.7,4.));
#1231=CARTESIAN_POINT('',(-4.89999956800961,-9.7,4.));
#1232=CARTESIAN_POINT('',(-9.7,-9.7,0.));
#1233=CARTESIAN_POINT('Origin',(-9.7,12.8,0.));
#1234=CARTESIAN_POINT('',(-9.7,12.8,4.));
#1235=CARTESIAN_POINT('',(-9.7,1.225,4.));
#1236=CARTESIAN_POINT('',(-9.7,12.8,0.));
#1237=CARTESIAN_POINT('Origin',(12.1999993397639,12.8,0.));
#1238=CARTESIAN_POINT('',(12.1999993397639,12.8,4.));
#1239=CARTESIAN_POINT('',(12.8,12.8,4.));
#1240=CARTESIAN_POINT('',(12.1999993397639,12.8,0.));
#1241=CARTESIAN_POINT('Origin',(26.0000002131281,-4.1319149665376,0.));
#1242=CARTESIAN_POINT('',(26.0000002131281,-4.1319149665376,4.));
#1243=CARTESIAN_POINT('',(26.0000002131281,-4.1319149665376,4.));
#1244=CARTESIAN_POINT('',(26.0000002131281,-4.1319149665376,0.));
#1245=CARTESIAN_POINT('Origin',(26.0000017279616,-33.5,0.));
#1246=CARTESIAN_POINT('',(26.0000017279616,-33.5,4.));
#1247=CARTESIAN_POINT('Origin',(8.63980780252405E-7,-10.35,4.));
#1248=CARTESIAN_POINT('Origin',(-60.7701624202438,-12.2,0.));
#1249=CARTESIAN_POINT('',(-35.7701624202438,-12.2,6.));
#1250=CARTESIAN_POINT('',(-60.7701624202438,-12.2,6.));
#1251=CARTESIAN_POINT('',(-54.5201624202438,-12.2,6.));
#1252=CARTESIAN_POINT('',(-60.7701624202438,-12.2,0.));
#1253=CARTESIAN_POINT('',(-60.7701624202438,-12.2,0.));
#1254=CARTESIAN_POINT('',(-35.7701624202438,-12.2,0.));
#1255=CARTESIAN_POINT('',(-60.7701624202438,-12.2,0.));
#1256=CARTESIAN_POINT('',(-35.7701624202438,-12.2,0.));
#1257=CARTESIAN_POINT('Origin',(-60.7701624202438,12.8,0.));
#1258=CARTESIAN_POINT('',(-60.7701624202438,12.8,6.));
#1259=CARTESIAN_POINT('',(-60.7701624202438,6.55,6.));
#1260=CARTESIAN_POINT('',(-60.7701624202438,12.8,0.));
#1261=CARTESIAN_POINT('',(-60.7701624202438,12.8,0.));
#1262=CARTESIAN_POINT('',(-60.7701624202438,12.8,0.));
#1263=CARTESIAN_POINT('Origin',(-58.3701624202438,12.8,0.));
#1264=CARTESIAN_POINT('',(-58.3701624202438,12.8,6.));
#1265=CARTESIAN_POINT('',(-53.3201624202438,12.8,6.));
#1266=CARTESIAN_POINT('',(-58.3701624202438,12.8,0.));
#1267=CARTESIAN_POINT('',(-58.3701624202438,12.8,0.));
#1268=CARTESIAN_POINT('',(-35.7701624202438,12.8,0.));
#1269=CARTESIAN_POINT('Origin',(-58.3701624202438,-9.8,0.));
#1270=CARTESIAN_POINT('',(-58.3701624202438,-9.8,6.));
#1271=CARTESIAN_POINT('',(-58.3701624202438,-4.75,6.));
#1272=CARTESIAN_POINT('',(-58.3701624202438,-9.8,0.));
#1273=CARTESIAN_POINT('',(-58.3701624202438,-9.8,0.));
#1274=CARTESIAN_POINT('',(-58.3701624202438,12.8,0.));
#1275=CARTESIAN_POINT('Origin',(-35.7701624202438,-9.8,0.));
#1276=CARTESIAN_POINT('',(-35.7701624202438,-9.8,6.));
#1277=CARTESIAN_POINT('',(-42.0201624202438,-9.8,6.));
#1278=CARTESIAN_POINT('',(-35.7701624202438,-9.8,0.));
#1279=CARTESIAN_POINT('',(-35.7701624202438,-9.8,0.));
#1280=CARTESIAN_POINT('',(-58.3701624202438,-9.8,0.));
#1281=CARTESIAN_POINT('Origin',(-35.7701624202438,-12.2,0.));
#1282=CARTESIAN_POINT('',(-35.7701624202438,-5.95,6.));
#1283=CARTESIAN_POINT('',(-35.7701624202438,-9.8,0.));
#1284=CARTESIAN_POINT('Origin',(-48.2701624202438,0.3,0.));
#1285=CARTESIAN_POINT('Origin',(-48.2701624202438,0.3,6.));
#1286=UNCERTAINTY_MEASURE_WITH_UNIT(LENGTH_MEASURE(0.01),#1290,
'DISTANCE_ACCURACY_VALUE',
'Maximum model space distance between geometric entities at asserted c
onnectivities');
#1287=UNCERTAINTY_MEASURE_WITH_UNIT(LENGTH_MEASURE(0.01),#1290,
'DISTANCE_ACCURACY_VALUE',
'Maximum model space distance between geometric entities at asserted c
onnectivities');
#1288=(
GEOMETRIC_REPRESENTATION_CONTEXT(3)
GLOBAL_UNCERTAINTY_ASSIGNED_CONTEXT((#1286))
GLOBAL_UNIT_ASSIGNED_CONTEXT((#1290,#1292,#1293))
REPRESENTATION_CONTEXT('','3D')
);
#1289=(
GEOMETRIC_REPRESENTATION_CONTEXT(3)
GLOBAL_UNCERTAINTY_ASSIGNED_CONTEXT((#1287))
GLOBAL_UNIT_ASSIGNED_CONTEXT((#1290,#1292,#1293))
REPRESENTATION_CONTEXT('','3D')
);
#1290=(
LENGTH_UNIT()
NAMED_UNIT(*)
SI_UNIT(.MILLI.,.METRE.)
);
#1291=(
LENGTH_UNIT()
NAMED_UNIT(*)
SI_UNIT($,.METRE.)
);
#1292=(
NAMED_UNIT(*)
PLANE_ANGLE_UNIT()
SI_UNIT($,.RADIAN.)
);
#1293=(
NAMED_UNIT(*)
SI_UNIT($,.STERADIAN.)
SOLID_ANGLE_UNIT()
);
#1294=SHAPE_DEFINITION_REPRESENTATION(#1295,#1296);
#1295=PRODUCT_DEFINITION_SHAPE('',$,#1298);
#1296=SHAPE_REPRESENTATION('',(#813),#1288);
#1297=PRODUCT_DEFINITION_CONTEXT('part definition',#1302,'design');
#1298=PRODUCT_DEFINITION('Purge bucket','Purge bucket v6',#1299,#1297);
#1299=PRODUCT_DEFINITION_FORMATION('',$,#1304);
#1300=PRODUCT_RELATED_PRODUCT_CATEGORY('Purge bucket v6',
'Purge bucket v6',(#1304));
#1301=APPLICATION_PROTOCOL_DEFINITION('international standard',
'automotive_design',2009,#1302);
#1302=APPLICATION_CONTEXT(
'Core Data for Automotive Mechanical Design Process');
#1303=PRODUCT_CONTEXT('part definition',#1302,'mechanical');
#1304=PRODUCT('Purge bucket','Purge bucket v6',$,(#1303));
#1305=PRESENTATION_STYLE_ASSIGNMENT((#1306));
#1306=SURFACE_STYLE_USAGE(.BOTH.,#1307);
#1307=SURFACE_SIDE_STYLE('',(#1308));
#1308=SURFACE_STYLE_FILL_AREA(#1309);
#1309=FILL_AREA_STYLE('Steel - Satin',(#1310));
#1310=FILL_AREA_STYLE_COLOUR('Steel - Satin',#1311);
#1311=COLOUR_RGB('Steel - Satin',0.627450980392157,0.627450980392157,0.627450980392157);
ENDSEC;
END-ISO-10303-21;
